<svg xmlns="http://www.w3.org/2000/svg" width="400" height="400" viewBox="0 0 400 400">
  <!-- Background circle -->
  <circle cx="200" cy="200" r="195" fill="#FFF8E1" stroke="#C4A882" stroke-width="4"/>

  <!-- Hair (back) -->
  <ellipse cx="200" cy="165" rx="110" ry="115" fill="#6B4226"/>

  <!-- Face -->
  <ellipse cx="200" cy="210" rx="85" ry="95" fill="#FFE0BD"/>

  <!-- Hair (front/bangs) -->
  <path d="M105 155 Q120 90 200 80 Q280 90 295 155 Q280 120 250 115 Q220 105 200 110 Q180 105 150 115 Q120 120 105 155Z" fill="#6B4226"/>
  <!-- Side hair left -->
  <path d="M105 155 Q95 180 100 230 Q105 210 115 190 Z" fill="#6B4226"/>
  <!-- Side hair right -->
  <path d="M295 155 Q305 180 300 230 Q295 210 285 190 Z" fill="#6B4226"/>

  <!-- Eyes -->
  <ellipse cx="165" cy="210" rx="12" ry="14" fill="#333333"/>
  <ellipse cx="235" cy="210" rx="12" ry="14" fill="#333333"/>
  <!-- Eye highlights -->
  <circle cx="170" cy="205" r="4" fill="white"/>
  <circle cx="240" cy="205" r="4" fill="white"/>

  <!-- Eyebrows -->
  <path d="M145 190 Q165 182 185 188" stroke="#6B4226" stroke-width="3" fill="none" stroke-linecap="round"/>
  <path d="M215 188 Q235 182 255 190" stroke="#6B4226" stroke-width="3" fill="none" stroke-linecap="round"/>

  <!-- Nose -->
  <path d="M200 225 Q195 235 200 238 Q205 235 200 225" fill="#E8C4A0"/>

  <!-- Mouth (smile) -->
  <path d="M175 258 Q200 278 225 258" stroke="#333333" stroke-width="3" fill="none" stroke-linecap="round"/>

  <!-- Cheek blush -->
  <ellipse cx="145" cy="248" rx="18" ry="12" fill="#FFB5B5" opacity="0.4"/>
  <ellipse cx="255" cy="248" rx="18" ry="12" fill="#FFB5B5" opacity="0.4"/>

  <!-- Shirt/collar -->
  <path d="M130 320 Q140 300 200 295 Q260 300 270 320 Q280 360 280 400 L120 400 Q120 360 130 320Z" fill="#4A90D9"/>
  <!-- Collar detail -->
  <path d="M170 298 L200 325 L230 298" stroke="white" stroke-width="2" fill="none"/>

  <!-- Name tag -->
  <rect x="120" y="350" width="160" height="30" rx="5" fill="#F5C518" opacity="0.9"/>
  <text x="200" y="371" font-family="sans-serif" font-size="16" font-weight="bold" fill="#333" text-anchor="middle">けいたろう</text>
</svg>
